<svg width="20" height="20" viewBox="0 0 20 20" fill="none" xmlns="http://www.w3.org/2000/svg">
<g clip-path="url(#clip0_714_2)">
<path fill-rule="evenodd" clip-rule="evenodd" d="M0 0H20V20H0V0Z" fill="url(#paint0_linear_714_2)"/>
<path fill-rule="evenodd" clip-rule="evenodd" d="M13.026 13.5L13 6.974L6.5 7V13.526L13.026 13.5ZM13.5 7H14.5V7.5H13.5V8.5H14.5V9H13.5V10H14.5V10.5H13.5V11.5H14.5V12H13.5V13H14.5V13.5H13.5V13.526C13.4997 13.6516 13.4497 13.772 13.3609 13.8609C13.272 13.9497 13.1516 13.9997 13.026 14H13V15H12.5V14H11.5V15H11V14H10V15H9.5V14H8.5V15H8V14H7V15H6.5V14H6.474C6.34837 13.9997 6.22796 13.9497 6.13912 13.8609C6.05029 13.772 6.00026 13.6516 6 13.526V13.5H5V13H6V12H5V11.5H6V10.5H5V10H6V9H5V8.5H6V7.5H5V7H6V6.974C6.00026 6.84837 6.05029 6.72796 6.13912 6.63912C6.22796 6.55029 6.34837 6.50026 6.474 6.5H6.5V5.5H7V6.5H8V5.5H8.5V6.5H9.5V5.5H10V6.5H11V5.5H11.5V6.5H12.5V5.5H13V6.5H13.026C13.1516 6.50026 13.272 6.55029 13.3609 6.63912C13.4497 6.72796 13.4997 6.84837 13.5 6.974V7ZM10.5 16.5H3.5V9.5H4.5V9H3.531C3.2385 9 3 9.2385 3 9.531V16.469C3 16.7615 3.2385 17 3.531 17H10.4695C10.762 17 11 16.7615 11 16.469V15.5H10.5V16.5ZM17 3.531V10.469C17 10.7615 16.762 11 16.4695 11H15V10.5H16.5V3.5H9.5V5H9V3.531C9 3.2385 9.2385 3 9.531 3H16.4695C16.762 3 17 3.2385 17 3.531Z" fill="white"/>
</g>
<defs>
<linearGradient id="paint0_linear_714_2" x1="0" y1="2000" x2="2000" y2="0" gradientUnits="userSpaceOnUse">
<stop stop-color="#C8511B"/>
<stop offset="1" stop-color="#FF9900"/>
</linearGradient>
<clipPath id="clip0_714_2">
<rect width="20" height="20" rx="5" fill="white"/>
</clipPath>
</defs>
</svg>